{
	"asset": {
		"version": "2.0",
		"generator": "Sketchup glTF Exporter by Evan Prananta."
	},
	"scene": 0,
	"scenes": [
		{
			"nodes": [0]
		}
	],
	"samplers": [{}],
	"nodes": [
		{
			"name": "root",
			"mesh": 0
		}
	],
	"materials": [
		{
			"pbrMetallicRoughness": {
				"baseColorFactor": [0.6121, 0.6121, 0.6121, 1.0],
				"metallicFactor": 0.1,
				"roughnessFactor": 0.5
			},
			"name": "default material",
			"doubleSided": true
		},
		{
			"pbrMetallicRoughness": {
				"baseColorTexture": {
					"index": 0
				},
				"metallicFactor": 0.1,
				"roughnessFactor": 0.9
			},
			"name": "材料19",
			"doubleSided": true,
			"alphaMode": "OPAQUE"
		},
		{
			"pbrMetallicRoughness": {
				"baseColorTexture": {
					"index": 1
				},
				"metallicFactor": 0.1,
				"roughnessFactor": 0.9
			},
			"name": "材料17",
			"doubleSided": true,
			"alphaMode": "OPAQUE"
		},
		{
			"pbrMetallicRoughness": {
				"baseColorTexture": {
					"index": 2
				},
				"metallicFactor": 0.1,
				"roughnessFactor": 0.9
			},
			"name": "无缝刻痕混凝土",
			"doubleSided": true,
			"alphaMode": "OPAQUE"
		},
		{
			"pbrMetallicRoughness": {
				"baseColorTexture": {
					"index": 3
				},
				"metallicFactor": 0.1,
				"roughnessFactor": 0.9
			},
			"name": "材料7",
			"doubleSided": true,
			"alphaMode": "OPAQUE"
		},
		{
			"pbrMetallicRoughness": {
				"baseColorTexture": {
					"index": 4
				},
				"metallicFactor": 0.75,
				"roughnessFactor": 0.0
			},
			"name": "Metal_Corrogated_Shiny",
			"doubleSided": true,
			"alphaMode": "OPAQUE"
		},
		{
			"pbrMetallicRoughness": {
				"baseColorFactor": [0.0, 0.0, 0.0, 1.0],
				"metallicFactor": 0.1,
				"roughnessFactor": 0.9
			},
			"name": "Cor M1",
			"doubleSided": true
		},
		{
			"pbrMetallicRoughness": {
				"baseColorFactor": [0.0, 0.0, 0.0, 0.5],
				"metallicFactor": 0.1,
				"roughnessFactor": 0.9
			},
			"name": "[Translucent_Glass_Gray]3",
			"doubleSided": true,
			"alphaMode": "BLEND"
		},
		{
			"pbrMetallicRoughness": {
				"baseColorFactor": [1.0, 1.0, 1.0, 1.0],
				"metallicFactor": 0.1,
				"roughnessFactor": 0.9
			},
			"name": "White",
			"doubleSided": true
		},
		{
			"pbrMetallicRoughness": {
				"baseColorTexture": {
					"index": 5
				},
				"metallicFactor": 0.75,
				"roughnessFactor": 0.0
			},
			"name": "Metal_Aluminum_Anodized",
			"doubleSided": true,
			"alphaMode": "OPAQUE"
		},
		{
			"pbrMetallicRoughness": {
				"baseColorFactor": [0.5295, 1.0, 0.2158, 1.0],
				"metallicFactor": 0.1,
				"roughnessFactor": 0.9
			},
			"name": "材料62",
			"doubleSided": true
		},
		{
			"pbrMetallicRoughness": {
				"baseColorFactor": [1.0, 1.0, 1.0, 1.0],
				"metallicFactor": 0.1,
				"roughnessFactor": 0.9
			},
			"name": "[Color M00]1",
			"doubleSided": true
		},
		{
			"pbrMetallicRoughness": {
				"baseColorFactor": [0.1275, 0.3066, 0.8513, 0.5],
				"metallicFactor": 0.1,
				"roughnessFactor": 0.9
			},
			"name": "Translucent_Glass_Blue",
			"doubleSided": true,
			"alphaMode": "BLEND"
		},
		{
			"pbrMetallicRoughness": {
				"baseColorFactor": [0.0, 0.0, 0.0, 0.1459],
				"metallicFactor": 0.1,
				"roughnessFactor": 0.9
			},
			"name": "Glass",
			"doubleSided": true,
			"alphaMode": "BLEND"
		},
		{
			"pbrMetallicRoughness": {
				"baseColorFactor": [0.0718, 0.0199, 0.0104, 1.0],
				"metallicFactor": 0.75,
				"roughnessFactor": 0.0
			},
			"name": "Metallic_Paint_Copper",
			"doubleSided": true
		}
	],
	"images": [
		{
			"bufferView": 0,
			"mimeType": "image/png"
		},
		{
			"bufferView": 1,
			"mimeType": "image/png"
		},
		{
			"bufferView": 2,
			"mimeType": "image/png"
		},
		{
			"bufferView": 3,
			"mimeType": "image/png"
		},
		{
			"bufferView": 4,
			"mimeType": "image/png"
		},
		{
			"bufferView": 5,
			"mimeType": "image/png"
		}
	],
	"textures": [
		{
			"source": 0,
			"sampler": 0
		},
		{
			"source": 1,
			"sampler": 0
		},
		{
			"source": 2,
			"sampler": 0
		},
		{
			"source": 3,
			"sampler": 0
		},
		{
			"source": 4,
			"sampler": 0
		},
		{
			"source": 5,
			"sampler": 0
		}
	],
	"meshes": [
		{
			"primitives": [
				{
					"attributes": {
						"POSITION": 0,
						"NORMAL": 1
					},
					"indices": 5,
					"mode": 4,
					"material": 0
				},
				{
					"attributes": {
						"POSITION": 2,
						"NORMAL": 3,
						"TEXCOORD_0": 4
					},
					"indices": 6,
					"mode": 4,
					"material": 1
				},
				{
					"attributes": {
						"POSITION": 2,
						"NORMAL": 3,
						"TEXCOORD_0": 4
					},
					"indices": 7,
					"mode": 4,
					"material": 2
				},
				{
					"attributes": {
						"POSITION": 2,
						"NORMAL": 3,
						"TEXCOORD_0": 4
					},
					"indices": 8,
					"mode": 4,
					"material": 3
				},
				{
					"attributes": {
						"POSITION": 2,
						"NORMAL": 3,
						"TEXCOORD_0": 4
					},
					"indices": 9,
					"mode": 4,
					"material": 4
				},
				{
					"attributes": {
						"POSITION": 2,
						"NORMAL": 3,
						"TEXCOORD_0": 4
					},
					"indices": 10,
					"mode": 4,
					"material": 5
				},
				{
					"attributes": {
						"POSITION": 0,
						"NORMAL": 1
					},
					"indices": 11,
					"mode": 4,
					"material": 6
				},
				{
					"attributes": {
						"POSITION": 0,
						"NORMAL": 1
					},
					"indices": 12,
					"mode": 4,
					"material": 7
				},
				{
					"attributes": {
						"POSITION": 0,
						"NORMAL": 1
					},
					"indices": 13,
					"mode": 4,
					"material": 8
				},
				{
					"attributes": {
						"POSITION": 2,
						"NORMAL": 3,
						"TEXCOORD_0": 4
					},
					"indices": 14,
					"mode": 4,
					"material": 9
				},
				{
					"attributes": {
						"POSITION": 0,
						"NORMAL": 1
					},
					"indices": 15,
					"mode": 4,
					"material": 10
				},
				{
					"attributes": {
						"POSITION": 0,
						"NORMAL": 1
					},
					"indices": 16,
					"mode": 4,
					"material": 11
				},
				{
					"attributes": {
						"POSITION": 0,
						"NORMAL": 1
					},
					"indices": 17,
					"mode": 4,
					"material": 12
				},
				{
					"attributes": {
						"POSITION": 0,
						"NORMAL": 1
					},
					"indices": 18,
					"mode": 4,
					"material": 13
				},
				{
					"attributes": {
						"POSITION": 0,
						"NORMAL": 1
					},
					"indices": 19,
					"mode": 4,
					"material": 14
				}
			]
		}
	],
	"accessors": [
		{
			"bufferView": 6,
			"componentType": 5126,
			"count": 36573,
			"type": "VEC3",
			"min": [-2.180235991007461, -5.713520678386638e-17, -0.9330887374816337],
			"max": [1.0633847188844907, 2.4, 0.8267694377689818]
		},
		{
			"bufferView": 7,
			"componentType": 5126,
			"count": 36573,
			"type": "VEC3"
		},
		{
			"bufferView": 8,
			"componentType": 5126,
			"count": 16687,
			"type": "VEC3",
			"min": [-1.038384718884492, -5.0625027279832013e-17, -0.8267694377689819],
			"max": [1.038384718884491, 2.4, 0.8267694377689818]
		},
		{
			"bufferView": 9,
			"componentType": 5126,
			"count": 16687,
			"type": "VEC3"
		},
		{
			"bufferView": 10,
			"componentType": 5126,
			"count": 16687,
			"type": "VEC2"
		},
		{
			"bufferView": 11,
			"componentType": 5123,
			"count": 109245,
			"type": "SCALAR"
		},
		{
			"bufferView": 12,
			"componentType": 5123,
			"count": 6,
			"type": "SCALAR"
		},
		{
			"bufferView": 12,
			"componentType": 5123,
			"count": 270,
			"type": "SCALAR",
			"byteOffset": 12
		},
		{
			"bufferView": 12,
			"componentType": 5123,
			"count": 1578,
			"type": "SCALAR",
			"byteOffset": 552
		},
		{
			"bufferView": 12,
			"componentType": 5123,
			"count": 183,
			"type": "SCALAR",
			"byteOffset": 3708
		},
		{
			"bufferView": 12,
			"componentType": 5123,
			"count": 23892,
			"type": "SCALAR",
			"byteOffset": 4074
		},
		{
			"bufferView": 11,
			"componentType": 5123,
			"count": 540,
			"type": "SCALAR",
			"byteOffset": 218490
		},
		{
			"bufferView": 11,
			"componentType": 5123,
			"count": 51,
			"type": "SCALAR",
			"byteOffset": 219570
		},
		{
			"bufferView": 11,
			"componentType": 5123,
			"count": 10197,
			"type": "SCALAR",
			"byteOffset": 219672
		},
		{
			"bufferView": 12,
			"componentType": 5123,
			"count": 453,
			"type": "SCALAR",
			"byteOffset": 51858
		},
		{
			"bufferView": 11,
			"componentType": 5123,
			"count": 144,
			"type": "SCALAR",
			"byteOffset": 240066
		},
		{
			"bufferView": 11,
			"componentType": 5123,
			"count": 183,
			"type": "SCALAR",
			"byteOffset": 240354
		},
		{
			"bufferView": 11,
			"componentType": 5123,
			"count": 12,
			"type": "SCALAR",
			"byteOffset": 240720
		},
		{
			"bufferView": 11,
			"componentType": 5123,
			"count": 72,
			"type": "SCALAR",
			"byteOffset": 240744
		},
		{
			"bufferView": 11,
			"componentType": 5123,
			"count": 30,
			"type": "SCALAR",
			"byteOffset": 240888
		}
	],
	"bufferViews": [
		{
			"buffer": 0,
			"byteLength": 100802
		},
		{
			"buffer": 0,
			"byteOffset": 100802,
			"byteLength": 2377
		},
		{
			"buffer": 0,
			"byteOffset": 103179,
			"byteLength": 88775
		},
		{
			"buffer": 0,
			"byteOffset": 191954,
			"byteLength": 94444
		},
		{
			"buffer": 0,
			"byteOffset": 286398,
			"byteLength": 2125
		},
		{
			"buffer": 0,
			"byteOffset": 288523,
			"byteLength": 19973
		},
		{
			"buffer": 0,
			"byteOffset": 308496,
			"byteLength": 438876,
			"target": 34962,
			"byteStride": 12
		},
		{
			"buffer": 0,
			"byteOffset": 747372,
			"byteLength": 438876,
			"target": 34962,
			"byteStride": 12
		},
		{
			"buffer": 0,
			"byteOffset": 1186248,
			"byteLength": 200244,
			"target": 34962,
			"byteStride": 12
		},
		{
			"buffer": 0,
			"byteOffset": 1386492,
			"byteLength": 200244,
			"target": 34962,
			"byteStride": 12
		},
		{
			"buffer": 0,
			"byteOffset": 1586736,
			"byteLength": 133496,
			"target": 34962,
			"byteStride": 8
		},
		{
			"buffer": 0,
			"byteOffset": 1720232,
			"byteLength": 240948,
			"target": 34963
		},
		{
			"buffer": 0,
			"byteOffset": 1961180,
			"byteLength": 52764,
			"target": 34963
		}
	],
	"buffers": [
		{
			"uri": "data:application/octet-stream;base64,",
			"byteLength": 2013944
		}
	]
}
